# xmcd
#
# Track frame offsets:
#	150
#	11240
#	24445
#	37107
#	49647
#	60285
#	72960
#	85905
#	98095
#	109645
#	121232
#	134327
#	148955
#	159432
#	170687
#
# Disc length: 2466
#
# Revision: 2
# Processed by: cddbd v1.5.1PL0 Copyright (c) Steve Scherf et al.
# Submitted via: CDWizzard Release:4.23
# Normalized: r1:TDELIM( - )
#
DISCID=c909a00f
DTITLE=A Collection - Soul Rites - CD No. 1
DYEAR=1900
DGENRE=
TTITLE0=Wilson Picket - Land of 10.000 Dances
TTITLE1=Joe Tex - Show Me
TTITLE2=James Brown - I got you (I feel you)
TTITLE3=Aretha Franklin - Chain in Fools
TTITLE4=Brenton Wood - Gimme Little Sign
TTITLE5=Tammi Lynn - I'm Gonna Run Away From You
TTITLE6=Dobie Gray - The 'IN' Crowd
TTITLE7=Sam and Dave - You Don't Know What You Mean To Me
TTITLE8=Betty LaVette - He Made a Woman Out Of Me
TTITLE9=Maxine Brown - All In My Mind
TTITLE10=Slim Harpo - Baby Scratch My Back
TTITLE11=James and Bobby Purify - I'm Your Puppet
TTITLE12=Major Lance - UM UM UM UM UM UM
TTITLE13=Lavern Baker - See See Rider
TTITLE14=Ray Charles - What'd I Say (Part 1)
EXTD=
EXTT0=Wilson Pickett
EXTT1=
EXTT2=
EXTT3=
EXTT4=
EXTT5=
EXTT6=
EXTT7=
EXTT8=
EXTT9=
EXTT10=
EXTT11=
EXTT12=
EXTT13=
EXTT14=
PLAYORDER=
